# xmcd CD database file
#
# Track frame offsets:
#	150
#	45337
#	94160
#	128207
#	152310
#
# Disc length: 2452 seconds
#
# Revision: 2
# Processed by: cddbd v1.4PL0 Copyright (c) Steve Scherf et al.
# Submitted via: CDex 1.50Beta7
#
DISCID=2f099205
DTITLE=Hank Mobley - Workout
DYEAR=1961
DGENRE=Jazz
TTITLE0=Workout
TTITLE1=Uh Huh
TTITLE2=Smokin'
TTITLE3=The Best Things in Life are Free
TTITLE4=Greasin' Easy
EXTD=YEAR: 1961
EXTT0=
EXTT1=
EXTT2=
EXTT3=
EXTT4=
PLAYORDER=
